<svg width="327" height="56" viewBox="0 0 327 56" fill="none" xmlns="http://www.w3.org/2000/svg">
<rect width="327" height="56" rx="28" fill="#0052FF"/>
<path d="M43.545 32.352C45.097 32.352 45.881 31.472 46.073 30.448H48.313C47.913 32.72 46.153 34.224 43.609 34.224C40.137 34.224 38.297 31.632 38.297 28.368C38.297 25.12 40.137 22.496 43.609 22.496C46.137 22.496 47.897 24 48.281 26.144H46.009C45.785 25.088 44.969 24.368 43.545 24.368C41.881 24.368 40.505 25.648 40.505 27.968V28.752C40.505 31.072 41.881 32.352 43.545 32.352ZM53.6445 34.224C50.8445 34.224 49.4365 32.16 49.4365 29.808C49.4365 27.456 50.8605 25.392 53.6445 25.392C56.4125 25.392 57.8365 27.472 57.8365 29.808C57.8365 32.16 56.4285 34.224 53.6445 34.224ZM55.7565 30.176V29.456C55.7565 27.952 54.8285 27.104 53.6445 27.104C52.4445 27.104 51.5165 27.984 51.5165 29.456V30.176C51.5165 31.632 52.4445 32.512 53.6445 32.512C54.8285 32.512 55.7565 31.664 55.7565 30.176ZM61.6211 29.072V34H59.5411V25.616H61.4931V26.96H61.5091C61.9571 25.92 62.9331 25.392 64.1171 25.392C65.9091 25.392 67.2211 26.64 67.2211 28.752V34H65.1411V28.976C65.1411 27.744 64.3251 27.152 63.4291 27.152C62.4851 27.152 61.6211 27.776 61.6211 29.072ZM68.2411 25.616H70.0651V23.264H72.1451V25.616H74.7371V27.312H72.1451V31.616C72.1451 32.112 72.3531 32.32 72.8331 32.32H74.7371V34H72.3531C70.8011 34 70.0651 33.232 70.0651 31.792V27.312H68.2411V25.616ZM78.0965 24.64H77.9525C77.2325 24.64 76.6725 24.08 76.6725 23.408C76.6725 22.704 77.2325 22.16 77.9525 22.16H78.0965C78.8005 22.16 79.3605 22.704 79.3605 23.408C79.3605 24.08 78.8005 24.64 78.0965 24.64ZM75.6805 27.28V25.616H79.0565V34H76.9765V27.28H75.6805ZM83.3086 29.072V34H81.2286V25.616H83.1806V26.96H83.1966C83.6446 25.92 84.6206 25.392 85.8046 25.392C87.5966 25.392 88.9086 26.64 88.9086 28.752V34H86.8286V28.976C86.8286 27.744 86.0126 27.152 85.1166 27.152C84.1726 27.152 83.3086 27.776 83.3086 29.072ZM96.4514 30.544V25.616H98.5314V34H96.5794V32.656H96.5634C96.1154 33.696 95.1394 34.224 93.9554 34.224C92.1634 34.224 90.8514 32.976 90.8514 30.864V25.616H92.9314V30.64C92.9314 31.872 93.7474 32.464 94.6434 32.464C95.5874 32.464 96.4514 31.84 96.4514 30.544ZM104.473 34.224C101.641 34.224 100.249 32.176 100.249 29.808C100.249 27.456 101.657 25.392 104.393 25.392C107.097 25.392 108.441 27.36 108.441 29.584V30.336H102.329C102.345 31.808 103.273 32.672 104.521 32.672C105.577 32.672 106.137 32.08 106.217 31.52H108.297C108.025 33.12 106.537 34.224 104.473 34.224ZM104.393 26.944C103.305 26.944 102.473 27.68 102.345 28.944H106.361C106.313 27.664 105.513 26.944 104.393 26.944ZM112.629 25.616H114.805L116.405 31.328H116.421L118.117 25.616H120.085L121.781 31.312H121.797L123.381 25.616H125.349L122.821 34.032H120.741L119.029 28.16H119.013L117.285 34.032H115.285L112.629 25.616ZM128.3 24.64H128.156C127.436 24.64 126.876 24.08 126.876 23.408C126.876 22.704 127.436 22.16 128.156 22.16H128.3C129.004 22.16 129.564 22.704 129.564 23.408C129.564 24.08 129.004 24.64 128.3 24.64ZM125.884 27.28V25.616H129.26V34H127.18V27.28H125.884ZM130.632 25.616H132.456V23.264H134.536V25.616H137.128V27.312H134.536V31.616C134.536 32.112 134.744 32.32 135.224 32.32H137.128V34H134.744C133.192 34 132.456 33.232 132.456 31.792V27.312H130.632V25.616ZM140.871 29.072V34H138.791V22.128H140.823V26.8H140.839C141.319 25.872 142.231 25.392 143.367 25.392C145.159 25.392 146.471 26.64 146.471 28.752V34H144.391V28.976C144.391 27.744 143.575 27.152 142.679 27.152C141.735 27.152 140.871 27.776 140.871 29.072ZM156.795 32.352C158.347 32.352 159.131 31.472 159.323 30.448H161.563C161.163 32.72 159.403 34.224 156.859 34.224C153.387 34.224 151.547 31.632 151.547 28.368C151.547 25.12 153.387 22.496 156.859 22.496C159.387 22.496 161.147 24 161.531 26.144H159.259C159.035 25.088 158.219 24.368 156.795 24.368C155.131 24.368 153.755 25.648 153.755 27.968V28.752C153.755 31.072 155.131 32.352 156.795 32.352ZM166.895 34.224C164.095 34.224 162.687 32.16 162.687 29.808C162.687 27.456 164.111 25.392 166.895 25.392C169.663 25.392 171.087 27.472 171.087 29.808C171.087 32.16 169.679 34.224 166.895 34.224ZM169.007 30.176V29.456C169.007 27.952 168.079 27.104 166.895 27.104C165.695 27.104 164.767 27.984 164.767 29.456V30.176C164.767 31.632 165.695 32.512 166.895 32.512C168.079 32.512 169.007 31.664 169.007 30.176ZM174.487 24.64H174.343C173.623 24.64 173.063 24.08 173.063 23.408C173.063 22.704 173.623 22.16 174.343 22.16H174.487C175.191 22.16 175.751 22.704 175.751 23.408C175.751 24.08 175.191 24.64 174.487 24.64ZM172.071 27.28V25.616H175.447V34H173.367V27.28H172.071ZM179.699 29.072V34H177.619V25.616H179.571V26.96H179.587C180.035 25.92 181.011 25.392 182.195 25.392C183.987 25.392 185.299 26.64 185.299 28.752V34H183.219V28.976C183.219 27.744 182.403 27.152 181.507 27.152C180.563 27.152 179.699 27.776 179.699 29.072ZM187.385 34V22.128H189.465V26.832H189.481C189.961 25.952 190.825 25.392 192.089 25.392C194.505 25.392 195.753 27.456 195.753 29.808C195.753 32.176 194.505 34.224 192.089 34.224C190.713 34.224 189.833 33.6 189.353 32.592H189.337V34H187.385ZM193.673 30.192V29.456C193.673 27.968 192.729 27.12 191.561 27.12C190.393 27.12 189.465 28 189.465 29.456V30.192C189.465 31.648 190.393 32.528 191.561 32.528C192.729 32.528 193.673 31.68 193.673 30.192ZM197.145 28.048C197.321 26.464 198.601 25.392 200.793 25.392C202.713 25.392 204.281 26.224 204.281 28.352V31.824C204.281 32.288 204.457 32.384 204.841 32.384H205.337V34H204.185C203.033 34 202.585 33.472 202.601 32.64V32.56H202.585C202.185 33.568 201.193 34.224 199.817 34.224C198.073 34.224 196.873 33.28 196.873 31.696C196.873 30.064 198.089 29.296 200.057 29.024L201.081 28.864C201.865 28.752 202.201 28.496 202.201 27.968C202.201 27.408 201.833 26.896 200.761 26.896C199.769 26.896 199.257 27.344 199.193 28.048H197.145ZM202.233 30.608V29.824C202.057 29.968 201.737 30.144 201.257 30.208L200.377 30.336C199.449 30.48 198.889 30.848 198.889 31.488V31.584C198.889 32.24 199.401 32.656 200.249 32.656C201.465 32.656 202.233 31.824 202.233 30.608ZM206.09 31.504H208.218C208.234 32.352 208.922 32.72 209.914 32.72C210.874 32.72 211.498 32.352 211.498 31.68C211.498 31.024 210.906 30.784 210.026 30.672L208.81 30.512C207.434 30.32 206.298 29.648 206.298 28.048C206.298 26.352 207.85 25.376 209.882 25.376C212.074 25.376 213.354 26.512 213.418 27.984H211.322C211.306 27.296 210.794 26.864 209.834 26.864C208.906 26.864 208.394 27.28 208.394 27.856C208.394 28.432 208.826 28.704 209.546 28.8L210.762 28.976C212.266 29.184 213.594 29.84 213.594 31.504C213.594 33.232 211.994 34.256 209.85 34.256C207.642 34.256 206.122 33.184 206.09 31.504ZM219.004 34.224C216.172 34.224 214.78 32.176 214.78 29.808C214.78 27.456 216.188 25.392 218.924 25.392C221.628 25.392 222.972 27.36 222.972 29.584V30.336H216.86C216.876 31.808 217.804 32.672 219.052 32.672C220.108 32.672 220.668 32.08 220.748 31.52H222.828C222.556 33.12 221.068 34.224 219.004 34.224ZM218.924 26.944C217.836 26.944 217.004 27.68 216.876 28.944H220.892C220.844 27.664 220.044 26.944 218.924 26.944ZM233 34.224C229.56 34.224 227.672 31.616 227.672 28.368C227.672 25.12 229.576 22.496 233 22.496C236.44 22.496 238.328 25.12 238.328 28.368C238.328 31.616 236.456 34.224 233 34.224ZM233 32.352C234.728 32.352 236.136 31.072 236.136 28.752V27.968C236.136 25.648 234.728 24.368 233 24.368C231.288 24.368 229.88 25.648 229.88 27.968V28.752C229.88 31.072 231.288 32.352 233 32.352ZM242.184 29.072V34H240.104V25.616H242.056V26.96H242.072C242.52 25.92 243.496 25.392 244.68 25.392C246.472 25.392 247.784 26.64 247.784 28.752V34H245.704V28.976C245.704 27.744 244.888 27.152 243.992 27.152C243.048 27.152 242.184 27.776 242.184 29.072ZM249.869 34V25.616H251.853V27.088H251.869C252.077 26.384 252.765 25.6 254.253 25.6H255.277V27.504H253.869C252.445 27.504 251.949 28.192 251.949 29.312V34H249.869ZM256.176 28.048C256.352 26.464 257.632 25.392 259.824 25.392C261.744 25.392 263.312 26.224 263.312 28.352V31.824C263.312 32.288 263.488 32.384 263.872 32.384H264.368V34H263.216C262.064 34 261.616 33.472 261.632 32.64V32.56H261.616C261.216 33.568 260.224 34.224 258.848 34.224C257.104 34.224 255.904 33.28 255.904 31.696C255.904 30.064 257.12 29.296 259.088 29.024L260.112 28.864C260.896 28.752 261.232 28.496 261.232 27.968C261.232 27.408 260.864 26.896 259.792 26.896C258.8 26.896 258.288 27.344 258.224 28.048H256.176ZM261.264 30.608V29.824C261.088 29.968 260.768 30.144 260.288 30.208L259.408 30.336C258.48 30.48 257.92 30.848 257.92 31.488V31.584C257.92 32.24 258.432 32.656 259.28 32.656C260.496 32.656 261.264 31.824 261.264 30.608ZM265.651 34V25.616H267.603V26.848H267.619C268.035 25.888 268.931 25.392 270.051 25.392C271.251 25.392 272.211 25.968 272.659 27.008H272.675C273.139 25.952 274.147 25.392 275.331 25.392C277.043 25.392 278.307 26.592 278.307 28.608V34H276.227V28.832C276.227 27.696 275.475 27.152 274.643 27.152C273.795 27.152 273.01 27.728 273.01 28.928V34H270.931V28.832C270.931 27.696 270.179 27.152 269.363 27.152C268.515 27.152 267.731 27.728 267.731 28.928V34H265.651ZM280.385 25.616H282.337V27.024H282.353C282.833 26.032 283.729 25.392 285.089 25.392C287.505 25.392 288.753 27.44 288.753 29.808C288.753 32.16 287.505 34.224 285.089 34.224C283.809 34.224 282.961 33.664 282.481 32.784H282.465V37.072H280.385V25.616ZM286.673 29.44C286.673 27.936 285.729 27.088 284.561 27.088C283.393 27.088 282.465 27.984 282.465 29.44V30.16C282.465 31.632 283.393 32.496 284.561 32.496C285.729 32.496 286.673 31.664 286.673 30.16V29.44Z" fill="white"/>
</svg>
