<svg width="174" height="56" viewBox="0 0 174 56" fill="none" xmlns="http://www.w3.org/2000/svg">
<rect width="174" height="56" rx="28" fill="#0052FF"/>
<path d="M44.0225 34C40.7013 34 38.0113 31.315 38.0113 28C38.0113 24.685 40.7013 22 44.0225 22C46.9981 22 49.4678 24.165 49.9436 27H56C55.489 20.84 50.3244 16 44.0225 16C37.3851 16 32 21.375 32 28C32 34.625 37.3851 40 44.0225 40C50.3244 40 55.489 35.16 56 29H49.9436C49.4678 31.835 46.9981 34 44.0225 34Z" fill="white"/>
<path d="M132.638 33.7708V22.2456H137.899C140.529 22.2456 142 23.6371 142 25.6671C142 27.6971 140.529 29.105 137.899 29.105H134.472V33.7708H132.638ZM140.131 25.7653V25.5689C140.131 24.4393 139.37 23.7353 137.847 23.7353H134.472V27.6153H137.847C139.37 27.6153 140.131 26.9113 140.131 25.7653Z" fill="white"/>
<path d="M117.023 33.7708V22.2456H119.722L123.287 31.1842H123.305L126.835 22.2456H129.517V33.7708H127.735V24.1446H127.717L123.928 33.7872H122.543L118.753 24.1937H118.736V33.7708H117.023Z" fill="white"/>
<path d="M113.392 33.7708L112.302 31.0205H106.851L105.778 33.7708H103.874L108.547 22.2456H110.641L115.365 33.7708H113.392ZM109.533 24.0955L107.422 29.5307H111.713L109.568 24.0955H109.533Z" fill="white"/>
<path d="M93.6338 33.7708V22.2456H98.9119C101.542 22.2456 102.996 23.6371 102.996 25.6508C102.996 27.6808 101.577 28.9741 98.9984 28.9741H97.9428L103.584 33.7708H100.971L95.4681 28.9741V33.7708H93.6338ZM101.144 25.7817V25.5853C101.144 24.4229 100.365 23.719 98.8599 23.719H95.4681V27.6317H98.8599C100.365 27.6317 101.144 26.9277 101.144 25.7817Z" fill="white"/>
<path d="M80.6212 33.7708V22.2456H82.8189L88.7373 31.2824H88.7546V22.2456H90.5197V33.7708H88.4258L82.4209 24.5211H82.4036V33.7708H80.6212Z" fill="white"/>
<path d="M72.6242 34C68.9209 34 67 31.2988 67 28.0082C67 24.734 68.9209 22 72.6242 22C76.3102 22 78.231 24.734 78.231 28.0082C78.231 31.2988 76.3275 34 72.6242 34ZM72.6242 32.4939C74.6662 32.4939 76.3621 31.0041 76.3621 28.3683V27.6317C76.3621 24.9959 74.6662 23.5061 72.6242 23.5061C70.5649 23.5061 68.869 24.9959 68.869 27.6317V28.3683C68.869 31.0041 70.5649 32.4939 72.6242 32.4939Z" fill="white"/>
</svg>
