<svg width="393" height="720" viewBox="0 0 393 720" fill="none" xmlns="http://www.w3.org/2000/svg">
<g opacity="0.4">
<g opacity="0.5">
<g opacity="0.7" filter="url(#filter0_f_883_899)">
<path d="M69.0469 120.957L1.05117 131.28C-19.1654 134.349 -36.1395 148.116 -43.3159 167.263L-61.7661 216.49C-67.0146 230.494 -66.4893 246.008 -60.3057 259.625L-48.514 285.59C-39.9551 304.437 -21.7638 317.084 -1.11612 318.544L64.819 323.204C85.1847 324.643 104.739 314.969 115.952 297.906L149.537 246.8C161.733 228.239 161.908 204.251 149.984 185.515L125.118 146.447C113.122 127.599 91.1352 117.604 69.0469 120.957Z" fill="#FFDADD"/>
</g>
<g opacity="0.7" filter="url(#filter1_f_883_899)">
<path d="M50.8386 70.4334L-0.165392 171.103C-4.92736 180.502 -4.33699 191.723 1.38494 200.571L58.3732 288.687C64.0738 297.501 74.0143 302.64 84.5019 302.193L212.938 296.719C224.647 296.22 234.961 288.863 239.244 277.954L277.385 180.812C281.269 170.918 279.554 159.701 272.889 151.42L197.26 57.4494C191.114 49.8119 181.586 45.7113 171.813 46.4977L74.8811 54.2982C64.6048 55.1252 55.498 61.2368 50.8386 70.4334Z" fill="#231161"/>
</g>
<g opacity="0.7" filter="url(#filter2_f_883_899)">
<path d="M198.762 156.005L153.457 192.654C145.81 198.84 141.826 208.486 142.881 218.266L147.124 257.628C148.37 269.195 156.42 278.892 167.56 282.247L219.967 298.031C229.946 301.037 240.771 298.447 248.309 291.25L285.671 255.578C293.031 248.552 296.162 238.177 293.918 228.252L283.469 182.04C281.078 171.469 272.983 163.117 262.49 160.399L224.232 150.487C215.347 148.186 205.898 150.233 198.762 156.005Z" fill="#29CCB1"/>
</g>
<g opacity="0.4" filter="url(#filter3_f_883_899)">
<path d="M335.85 194.298L147.565 193.937C137.498 193.918 128.145 199.129 122.863 207.698L38.1166 345.193C32.3619 354.53 32.377 366.317 38.1558 375.639L143.25 545.168C148.999 554.441 159.473 559.695 170.344 558.758L346.241 543.592C356.493 542.708 365.505 536.449 369.914 527.152L447.794 362.909C452.177 353.665 451.357 342.795 445.636 334.314L359.796 207.059C354.425 199.097 345.455 194.316 335.85 194.298Z" fill="#FFEF9D"/>
</g>
</g>
</g>
<defs>
<filter id="filter0_f_883_899" x="-156.426" y="29.2456" width="406.304" height="385.169" filterUnits="userSpaceOnUse" color-interpolation-filters="sRGB">
<feFlood flood-opacity="0" result="BackgroundImageFix"/>
<feBlend mode="normal" in="SourceGraphic" in2="BackgroundImageFix" result="shape"/>
<feGaussianBlur stdDeviation="45.5353" result="effect1_foregroundBlur_883_899"/>
</filter>
<filter id="filter1_f_883_899" x="-85.3039" y="-35.5392" width="446.679" height="419.7" filterUnits="userSpaceOnUse" color-interpolation-filters="sRGB">
<feFlood flood-opacity="0" result="BackgroundImageFix"/>
<feBlend mode="normal" in="SourceGraphic" in2="BackgroundImageFix" result="shape"/>
<feGaussianBlur stdDeviation="40.9706" result="effect1_foregroundBlur_883_899"/>
</filter>
<filter id="filter2_f_883_899" x="62.6074" y="69.4556" width="312.13" height="309.912" filterUnits="userSpaceOnUse" color-interpolation-filters="sRGB">
<feFlood flood-opacity="0" result="BackgroundImageFix"/>
<feBlend mode="normal" in="SourceGraphic" in2="BackgroundImageFix" result="shape"/>
<feGaussianBlur stdDeviation="40.0531" result="effect1_foregroundBlur_883_899"/>
</filter>
<filter id="filter3_f_883_899" x="-126.401" y="33.7246" width="737.2" height="685.353" filterUnits="userSpaceOnUse" color-interpolation-filters="sRGB">
<feFlood flood-opacity="0" result="BackgroundImageFix"/>
<feBlend mode="normal" in="SourceGraphic" in2="BackgroundImageFix" result="shape"/>
<feGaussianBlur stdDeviation="80.1062" result="effect1_foregroundBlur_883_899"/>
</filter>
</defs>
</svg>
