<svg width="393" height="720" viewBox="0 0 393 720" fill="none" xmlns="http://www.w3.org/2000/svg">
<g opacity="0.7" filter="url(#filter0_f_883_464)">
<path d="M69.0471 120.955L1.05138 131.278C-19.1652 134.347 -36.1393 148.114 -43.3157 167.261L-61.7659 216.488C-67.0144 230.492 -66.4891 246.006 -60.3055 259.623L-48.5138 285.588C-39.9548 304.435 -21.7636 317.083 -1.11591 318.542L64.8192 323.202C85.1849 324.641 104.74 314.967 115.952 297.905L149.537 246.798C161.734 228.238 161.908 204.249 149.984 185.513L125.118 146.445C113.122 127.597 91.1355 117.602 69.0471 120.955Z" fill="#FFDADD"/>
</g>
<g opacity="0.7" filter="url(#filter1_f_883_464)">
<path d="M50.8388 70.4319L-0.16524 171.101C-4.92721 180.5 -4.33684 191.722 1.38509 200.569L58.3734 288.686C64.0739 297.5 74.0145 302.638 84.5021 302.191L212.938 296.718C224.648 296.219 234.961 288.862 239.244 277.953L277.385 180.811C281.269 170.917 279.554 159.7 272.89 151.419L197.261 57.4479C191.114 49.8104 181.586 45.7098 171.814 46.4962L74.8813 54.2967C64.605 55.1237 55.4982 61.2353 50.8388 70.4319Z" fill="#231161"/>
</g>
<g opacity="0.7" filter="url(#filter2_f_883_464)">
<path d="M198.762 156.003L153.457 192.652C145.81 198.839 141.827 208.485 142.881 218.264L147.124 257.626C148.371 269.193 156.42 278.89 167.56 282.245L219.967 298.029C229.946 301.035 240.771 298.445 248.309 291.248L285.672 255.577C293.031 248.55 296.162 238.176 293.918 228.251L283.469 182.039C281.078 171.467 272.983 163.116 262.49 160.397L224.232 150.486C215.348 148.184 205.898 150.231 198.762 156.003Z" fill="#29CCB1"/>
</g>
<g opacity="0.4" filter="url(#filter3_f_883_464)">
<path d="M335.85 194.297L147.565 193.936C137.499 193.917 128.145 199.128 122.863 207.697L38.1168 345.192C32.3621 354.529 32.3772 366.316 38.156 375.638L143.25 545.167C148.999 554.441 159.473 559.695 170.344 558.758L346.241 543.592C356.493 542.708 365.506 536.449 369.914 527.151L447.794 362.908C452.177 353.665 451.357 342.794 445.636 334.313L359.797 207.059C354.425 199.096 345.455 194.315 335.85 194.297Z" fill="#FFEF9D"/>
</g>
<defs>
<filter id="filter0_f_883_464" x="-156.426" y="29.2439" width="406.303" height="385.168" filterUnits="userSpaceOnUse" color-interpolation-filters="sRGB">
<feFlood flood-opacity="0" result="BackgroundImageFix"/>
<feBlend mode="normal" in="SourceGraphic" in2="BackgroundImageFix" result="shape"/>
<feGaussianBlur stdDeviation="45.5353" result="effect1_foregroundBlur_883_464"/>
</filter>
<filter id="filter1_f_883_464" x="-85.3038" y="-35.5409" width="446.679" height="419.701" filterUnits="userSpaceOnUse" color-interpolation-filters="sRGB">
<feFlood flood-opacity="0" result="BackgroundImageFix"/>
<feBlend mode="normal" in="SourceGraphic" in2="BackgroundImageFix" result="shape"/>
<feGaussianBlur stdDeviation="40.9706" result="effect1_foregroundBlur_883_464"/>
</filter>
<filter id="filter2_f_883_464" x="62.6074" y="69.4544" width="312.13" height="309.912" filterUnits="userSpaceOnUse" color-interpolation-filters="sRGB">
<feFlood flood-opacity="0" result="BackgroundImageFix"/>
<feBlend mode="normal" in="SourceGraphic" in2="BackgroundImageFix" result="shape"/>
<feGaussianBlur stdDeviation="40.0531" result="effect1_foregroundBlur_883_464"/>
</filter>
<filter id="filter3_f_883_464" x="-126.401" y="33.7232" width="737.2" height="685.354" filterUnits="userSpaceOnUse" color-interpolation-filters="sRGB">
<feFlood flood-opacity="0" result="BackgroundImageFix"/>
<feBlend mode="normal" in="SourceGraphic" in2="BackgroundImageFix" result="shape"/>
<feGaussianBlur stdDeviation="80.1062" result="effect1_foregroundBlur_883_464"/>
</filter>
</defs>
</svg>
